<?xml version="1.0" encoding="UTF-8"?>
<svg id="Layer_2" data-name="Layer 2" xmlns="http://www.w3.org/2000/svg" viewBox="0 0 571.62 350.74">
  <defs>
    <style>
      .cls-1 {
        fill: #4d4d4d;
      }

      .cls-2 {
        fill: #ff2a2a;
      }

      .cls-3 {
        fill: #1a1a1a;
      }
    </style>
  </defs>
  <g id="Layer_1-2" data-name="Layer 1">
    <g>
      <path class="cls-3" d="M379.59,65.58c-8.01,35.87,7.36,103.73,43.24,111.74,35.87,8.01,78.66-46.86,86.67-82.73,8.01-35.87-14.57-71.45-50.45-79.46-35.87-8.01-71.45,14.57-79.46,50.45Z"/>
      <path class="cls-2" d="M526.05,240.96c13.88,12.9,60.2-19.03,40.95-37.3-19.06-18.1-49.74,25.74-40.95,37.3Z"/>
      <path d="M0,350.74h557.19c0-133.32-108.07-241.39-241.39-241.39S89.66,193.72,0,350.74ZM440.29,203.35c0-5.3,4.3-9.6,9.6-9.6s9.6,4.3,9.6,9.6c0,5.3-4.3,9.6-9.6,9.6s-9.6-4.3-9.6-9.6Z"/>
      <path class="cls-1" d="M294.46,90.74c13.35,34.25,63.94,82.01,98.19,68.67,34.25-13.35,39.18-82.75,25.84-117-13.35-34.25-51.93-51.19-86.18-37.85-34.25,13.35-51.19,51.93-37.85,86.18Z"/>
    </g>
  </g>
</svg>